# xmcd
# 
# Track frame offsets:
#     183
#     18668
#     32838
#     51360
#     68723
#     91148
#     116693
#     128443
#     156045
#     172398
#     189013
#     204345
#     222048
#     238033
#     254953
#     270625
#     285773
#     301668
# 
# Disc length: 4301
# 
# Revision: 3
# Processed by: cddbd v1.5.2PL0 Copyright (c) Steve Scherf et al.
# Submitted via: fre:ac v1.0.17
# 
DISCID=f710cb12
DTITLE=Various Artist - Greatest Dance Album of the World Vol. 1
DYEAR=1993
DGENRE=Rock
TTITLE0=Neneh Cherry - Buffalo Stance
TTITLE1=Patrick Hernandez - Born to be Alive
TTITLE2=M.A.R.R.S. - Pump up the Volume
TTITLE3=Mai Tai - History
TTITLE4=Flirts - Passion
TTITLE5=Indeep - Last night a DJ saved my Life
TTITLE6=Tracey Ullman - Breakaway
TTITLE7=Big Fun - Blame it on the Boogie
TTITLE8=Honesty 69 - French Kiss
TTITLE9=49er - Touch me
TTITLE10=Ottowan - You´re OK
TTITLE11=Jam Tronik - Another Day in Paradise
TTITLE12=Heaven 17 - Temptation
TTITLE13=Tiffany - I think we´re alone now
TTITLE14=Carol Douglas - Doctor´s Order
TTITLE15=Inner City - Big Fun
TTITLE16=Sharon Day - Don´t you want me
TTITLE17=Village People - Y.M.C.A.
EXTD=\nYEAR: 2001  ID3G:  17
EXTT0=
EXTT1=
EXTT2=
EXTT3=
EXTT4=
EXTT5=
EXTT6=
EXTT7=
EXTT8=
EXTT9=
EXTT10=
EXTT11=
EXTT12=
EXTT13=
EXTT14=
EXTT15=
EXTT16=
EXTT17=
PLAYORDER=
